# File created by Blade
# Date/Time:  Tue Sep 30 19:12:01 2014
#---------------------------------------------------------
:version 1.10
:name HOM
:units
  mass 1.0
  length 1.000000
  angle deg
:documentation
     Acclaim Skeleton File
:root
   axis xyz
   order TX TY TZ RX RY RZ
   position 0.000000 0.000000 0.000000
   orientation 0 0 0
:bonedata
   begin
      id 1
      name Spine_dum
      direction 0.000000 1.000000 0.000000
      length 7.508948
      axis 0.0 0.0 0.0 xyz
   end
   begin
      id 2
      name LeftUpLeg_dum
      direction 1.000000 0.000000 0.000000
      length 3.000560
      axis 0.0 0.0 0.0 xyz
   end
   begin
      id 3
      name RightUpLeg_dum
      direction -1.000000 0.000000 0.000000
      length 3.000560
      axis 0.0 0.0 0.0 xyz
   end
   begin
      id 4
      name Spine
      direction 0.000000 1.000000 0.000000
      length 0.000000
      axis 0.0 0.0 0.0 xyz
      dof rx ry rz
   end
   begin
      id 5
      name Spine_dum1
      direction 0.000000 1.000000 0.000000
      length 13.861154
      axis 0.0 0.0 0.0 xyz
   end
   begin
      id 6
      name Spine_dum2
      direction 0.000000 1.000000 0.000000
      length 8.204781
      axis 0.0 0.0 0.0 xyz
   end
   begin
      id 7
      name Spine_dum3
      direction 0.000000 1.000000 0.000000
      length 8.204781
      axis 0.0 0.0 0.0 xyz
   end
   begin
      id 8
      name Head
      direction 0.000000 1.000000 0.000000
      length 4.527550
      axis 0.0 0.0 0.0 xyz
      dof rx ry rz
   end
   begin
      id 9
      name LeftShoulder
      direction 1.000000 0.000000 0.000000
      length 6.635956
      axis 0.0 0.0 -90.0 xyz
      dof rx ry rz
   end
   begin
      id 10
      name LeftArm
      direction 1.000000 0.000000 0.000000
      length 10.274218
      axis 0.0 0.0 -90.0 xyz
      dof rx ry rz
   end
   begin
      id 11
      name LeftForeArm
      direction 1.000000 0.000000 0.000000
      length 8.522147
      axis 0.0 0.0 -90.0 xyz
      dof ry rz rx
   end
   begin
      id 12
      name LeftHand
      direction 0.000000 0.000000 0.000000
      length 0.000000
      axis 0.0 0.0 -90.0 xyz
      dof rx ry rz
   end
   begin
      id 13
      name LeftHand_dum1
      direction 0.000000 0.000000 0.000000
      length 0.000000
      axis 0.0 0.0 -90.0 xyz
   end
   begin
      id 14
      name LeftHand_dum2
      direction 1.000000 0.000000 0.000000
      length 3.937000
      axis 0.0 0.0 -90.0 xyz
   end
   begin
      id 15
      name LeftHandThumb1
      direction 0.000000 0.000000 1.000000
      length 3.937000
      axis 0.0 0.0 -90.0 xyz
      dof rx rz ry
   end
   begin
      id 16
      name RightShoulder
      direction -1.000000 0.000000 0.000000
      length 6.635956
      axis 0.0 0.0 90.0 xyz
      dof rx ry rz
   end
   begin
      id 17
      name RightArm
      direction -1.000000 0.000000 0.000000
      length 10.274218
      axis 0.0 0.0 90.0 xyz
      dof rx ry rz
   end
   begin
      id 18
      name RightForeArm
      direction -1.000000 0.000000 0.000000
      length 8.522147
      axis 0.0 0.0 90.0 xyz
      dof ry rz rx
   end
   begin
      id 19
      name RightHand
      direction 0.000000 0.000000 0.000000
      length 0.000000
      axis 0.0 0.0 90.0 xyz
      dof rx ry rz
   end
   begin
      id 20
      name RightHand_dum1
      direction 0.000000 0.000000 0.000000
      length 0.000000
      axis 0.0 0.0 90.0 xyz
   end
   begin
      id 21
      name RightHand_dum2
      direction -1.000000 0.000000 0.000000
      length 3.937000
      axis 0.0 0.0 90.0 xyz
   end
   begin
      id 22
      name RightHandThumb1
      direction 0.000000 0.000000 1.000000
      length 3.937000
      axis 0.0 0.0 90.0 xyz
      dof rx rz ry
   end
   begin
      id 23
      name LeftUpLeg
      direction 0.000000 -1.000000 0.000000
      length 16.490845
      axis 0.0 0.0 0.0 xyz
      dof rx ry rz
   end
   begin
      id 24
      name LeftLeg
      direction 0.000000 -1.000000 0.000000
      length 14.556576
      axis 0.0 0.0 0.0 xyz
      dof rx ry rz
   end
   begin
      id 25
      name LeftFoot
      direction 0.000000 -0.258819 0.965926
      length 4.831116
      axis 15.0 0.0 0.0 xyz
      dof rx ry rz
   end
   begin
      id 26
      name LeftToeBase
      direction 0.000000 0.000000 1.000000
      length 2.952750
      axis 0.0 0.0 0.0 xyz
      dof rx ry rz
   end
   begin
      id 27
      name RightUpLeg
      direction 0.000000 -1.000000 0.000000
      length 16.490845
      axis 0.0 0.0 0.0 xyz
      dof rx ry rz
   end
   begin
      id 28
      name RightLeg
      direction 0.000000 -1.000000 0.000000
      length 14.556576
      axis 0.0 0.0 0.0 xyz
      dof rx ry rz
   end
   begin
      id 29
      name RightFoot
      direction 0.000000 -0.258819 0.965926
      length 4.831116
      axis 15.0 0.0 0.0 xyz
      dof rx ry rz
   end
   begin
      id 30
      name RightToeBase
      direction 0.000000 0.000000 1.000000
      length 2.952750
      axis 0.0 0.0 0.0 xyz
      dof rx ry rz
   end
:hierarchy
   begin
      root Spine_dum LeftUpLeg_dum RightUpLeg_dum
      Spine_dum Spine
      LeftUpLeg_dum LeftUpLeg
      RightUpLeg_dum RightUpLeg
      Spine Spine_dum1 Spine_dum2 Spine_dum3
      Spine_dum1 Head
      Spine_dum2 LeftShoulder
      Spine_dum3 RightShoulder
      LeftShoulder LeftArm
      LeftArm LeftForeArm
      LeftForeArm LeftHand
      LeftHand LeftHand_dum1 LeftHand_dum2
      LeftHand_dum1 LeftHandThumb1
      RightShoulder RightArm
      RightArm RightForeArm
      RightForeArm RightHand
      RightHand RightHand_dum1 RightHand_dum2
      RightHand_dum1 RightHandThumb1
      LeftUpLeg LeftLeg
      LeftLeg LeftFoot
      LeftFoot LeftToeBase
      RightUpLeg RightLeg
      RightLeg RightFoot
      RightFoot RightToeBase
   end

# File created by Blade
# Date/Time:  Thu Sep 25 17:14:50 2014
# Frame Rate: 120.000 fps
#------------------------------------------------------
:FULLY-SPECIFIED
:DEGREES
122
root 2.252855 32.486680 -1.749679 9.587858 -15.317411 0.394691
Spine -7.957189 5.746876 -0.603065
Head -2.483832 -10.770009 7.551998
LeftShoulder -12.189737 23.402431 15.137032
LeftArm 28.138981 10.648743 -63.123016
LeftForeArm 2.385956 -0.000000 16.454546
LeftHand -30.285583 0.000000 -2.171324
LeftHandThumb1 -26.253704 0.000000 33.147579
RightShoulder -17.824600 11.173708 -28.342102
RightArm -0.945881 -18.625325 70.408084
RightForeArm -21.289825 -0.000000 18.746258
RightHand -7.453592 -0.000000 9.175298
RightHandThumb1 -24.326973 -0.000000 -32.862282
LeftUpLeg -22.025132 -4.287023 6.404093
LeftLeg 47.937245 -0.000000 -0.000000
LeftFoot -19.971645 6.059405 -26.157698
LeftToeBase -4.256723 -0.000000 0.000000
RightUpLeg -15.575309 3.781407 -7.260439
RightLeg 19.162540 -0.000000 -0.000000
RightFoot -15.984403 1.971370 -2.664333
RightToeBase -1.736771 -0.000000 0.000000
123
root 2.383126 32.463882 -1.696640 9.439578 -16.152313 0.485726
Spine -7.993580 5.704461 -0.747404
Head -2.415921 -10.705377 7.505778
LeftShoulder -12.206289 23.259737 14.957550
LeftArm 27.803139 11.382839 -63.948911
LeftForeArm 2.867839 -0.000000 16.744367
LeftHand -30.011431 -0.000000 -2.604126
LeftHandThumb1 -26.253704 0.000000 33.147579
RightShoulder -17.881809 11.169068 -28.188431
RightArm -0.999545 -19.498337 71.554364
RightForeArm -20.999800 -0.000000 18.948407
RightHand -7.169742 -0.000000 9.118966
RightHandThumb1 -24.326973 -0.000000 -32.862282
LeftUpLeg -21.766906 -4.636993 6.878536
LeftLeg 48.387995 -0.000000 -0.000000
LeftFoot -19.908440 6.039708 -26.316821
LeftToeBase -4.096357 -0.000000 0.000000
RightUpLeg -15.804795 4.172344 -7.680291
RightLeg 19.571731 -0.000000 -0.000000
RightFoot -16.098944 2.283263 -2.624563
RightToeBase -1.772317 -0.000000 0.000000
124
root 2.518085 32.440028 -1.642283 9.299847 -16.978242 0.586409
Spine -8.076639 5.617385 -0.902195
Head -2.343209 -10.647718 7.447745
LeftShoulder -12.168594 23.163843 14.773928
LeftArm 27.444070 11.956501 -64.797755
LeftForeArm 3.322816 0.000000 17.029010
LeftHand -29.930240 -0.000000 -2.640089
LeftHandThumb1 -26.253704 0.000000 33.147579
RightShoulder -17.879235 11.160605 -28.009962
RightArm -1.114573 -20.109006 72.735286
RightForeArm -20.803514 0.000000 19.096947
RightHand -6.896860 -0.000000 8.957351
RightHandThumb1 -24.326973 -0.000000 -32.862282
LeftUpLeg -21.470853 -5.024084 7.353141
LeftLeg 48.766857 -0.000000 -0.000000
LeftFoot -19.755347 6.067698 -26.115292
LeftToeBase -3.969615 -0.000000 0.000000
RightUpLeg -16.044361 4.553308 -8.125558
RightLeg 19.972904 -0.000000 -0.000000
RightFoot -16.228453 2.624215 -2.583595
RightToeBase -1.642830 -0.000000 0.000000
125
root 2.659611 32.414754 -1.588817 9.158050 -17.812072 0.666717
Spine -8.140733 5.528618 -1.003921
Head -2.290821 -10.581488 7.363270
LeftShoulder -12.137964 23.150261 14.518943
LeftArm 27.208737 12.505088 -65.560090
LeftForeArm 3.575456 -0.000000 17.214361
LeftHand -29.710833 -0.000000 -2.380674
LeftHandThumb1 -26.253704 0.000000 33.147579
RightShoulder -17.887144 11.203770 -27.897685
RightArm -1.282007 -20.547045 73.977127
RightForeArm -20.620588 -0.000000 19.154080
RightHand -6.578501 0.000000 9.085700
RightHandThumb1 -24.326973 -0.000000 -32.862282
LeftUpLeg -21.146521 -5.506630 7.840321
LeftLeg 49.085584 -0.000000 -0.000000
LeftFoot -19.702303 6.097954 -26.008434
LeftToeBase -3.626983 -0.000000 0.000000
RightUpLeg -16.279273 4.877023 -8.552193
RightLeg 20.348713 -0.000000 -0.000000
RightFoot -16.293762 2.875146 -2.537561
RightToeBase -1.992494 -0.000000 0.000000
126
root 2.800330 32.388125 -1.524204 9.018221 -18.667949 0.791215
Spine -8.295164 5.455279 -1.193521
Head -2.135487 -10.538756 7.256615
LeftShoulder -12.078023 23.105640 14.342233
LeftArm 26.920918 13.184464 -66.253923
LeftForeArm 3.739608 -0.000000 17.373994
LeftHand -29.533836 -0.000000 -2.408767
LeftHandThumb1 -26.253704 0.000000 33.147579
RightShoulder -17.908273 11.208714 -27.754053
RightArm -1.508697 -21.057223 75.226484
RightForeArm -20.336755 -0.000000 19.206717
RightHand -6.191790 0.000000 9.206669
RightHandThumb1 -24.326973 -0.000000 -32.862282
LeftUpLeg -20.752269 -5.939628 8.285679
LeftLeg 49.294569 -0.000000 -0.000000
LeftFoot -19.500739 5.802240 -26.044009
LeftToeBase -4.053604 -0.000000 0.000000
RightUpLeg -16.520675 5.184360 -9.022562
RightLeg 20.707132 -0.000000 -0.000000
RightFoot -16.419977 3.295157 -2.475198
RightToeBase -2.073551 -0.000000 0.000000
127
root 2.943076 32.361168 -1.466210 8.842947 -19.512819 0.877414
Spine -8.349326 5.371213 -1.334156
Head -2.064355 -10.508375 7.227127
LeftShoulder -12.049120 23.062532 14.136065
LeftArm 26.762652 13.967851 -66.838896
LeftForeArm 3.630863 -0.000000 17.498768
LeftHand -29.523183 -0.000000 -2.471075
LeftHandThumb1 -26.253704 0.000000 33.147579
RightShoulder -17.948304 11.221540 -27.618438
RightArm -1.721397 -21.793732 76.471417
RightForeArm -19.798172 -0.000000 19.277879
RightHand -6.058915 -0.000000 9.302523
RightHandThumb1 -24.326973 -0.000000 -32.862282
LeftUpLeg -20.305261 -6.371297 8.784443
LeftLeg 49.445384 -0.000000 -0.000000
LeftFoot -19.349840 5.565671 -25.854322
LeftToeBase -4.038297 -0.000000 0.000000
RightUpLeg -16.732613 5.525564 -9.454559
RightLeg 21.050053 -0.000000 -0.000000
RightFoot -16.482004 3.690114 -2.402237
RightToeBase -2.195157 -0.000000 0.000000
128
root 3.096260 32.331076 -1.404531 8.671013 -20.408171 1.038680
Spine -8.471565 5.313101 -1.574844
Head -1.938653 -10.499874 7.184686
LeftShoulder -12.017097 23.015871 13.987979
LeftArm 26.613498 14.883547 -67.350558
LeftForeArm 3.401527 0.000000 17.597306
LeftHand -29.382712 -0.000000 -2.543847
LeftHandThumb1 -26.253704 0.000000 33.147579
RightShoulder -17.925007 11.235115 -27.471451
RightArm -2.107669 -22.328517 77.773736
RightForeArm -19.391760 -0.000000 19.497782
RightHand -6.068794 -0.000000 9.445112
RightHandThumb1 -24.326973 -0.000000 -32.862282
LeftUpLeg -19.843019 -6.832785 9.172229
LeftLeg 49.526802 -0.000000 -0.000000
LeftFoot -19.196508 5.359678 -25.500056
LeftToeBase -4.115248 -0.000000 0.000000
RightUpLeg -17.055908 5.763015 -9.972115
RightLeg 21.520368 -0.000000 -0.000000
RightFoot -16.590110 4.224635 -2.349943
RightToeBase -2.361280 -0.000000 0.000000
129
root 3.259295 32.299493 -1.343475 8.540225 -21.258016 1.165325
Spine -8.616692 5.187832 -1.693298
Head -1.825686 -10.617245 7.080630
LeftShoulder -12.064565 22.940313 13.732337
LeftArm 26.499033 15.967741 -67.711624
LeftForeArm 3.035552 -0.000000 17.690843
LeftHand -29.177407 -0.000000 -2.454287
LeftHandThumb1 -26.253704 0.000000 33.147579
RightShoulder -17.979617 11.197633 -27.380577
RightArm -2.333196 -22.948216 79.037462
RightForeArm -18.971564 -0.000000 19.573465
RightHand -5.914485 0.000000 9.871743
RightHandThumb1 -24.326973 -0.000000 -32.862282
LeftUpLeg -19.410734 -7.331643 9.595073
LeftLeg 49.593813 -0.000000 -0.000000
LeftFoot -18.932491 4.787766 -25.630063
LeftToeBase -4.572128 -0.000000 0.000000
RightUpLeg -17.350109 6.063687 -10.488508
RightLeg 21.848672 -0.000000 -0.000000
RightFoot -16.660343 4.696420 -2.234880
RightToeBase -2.490959 -0.000000 0.000000
130
root 3.418685 32.265809 -1.285508 8.416168 -22.132998 1.262677
Spine -8.760048 5.087139 -1.839857
Head -1.759753 -10.668254 7.001197
LeftShoulder -12.093050 22.811631 13.532086
LeftArm 26.375263 17.113155 -68.031729
LeftForeArm 2.543863 -0.000000 17.787393
LeftHand -29.158500 0.000000 -1.218651
LeftHandThumb1 -26.253704 0.000000 33.147579
RightShoulder -17.911900 11.286039 -27.261305
RightArm -2.860170 -23.555504 80.376367
RightForeArm -18.560336 -0.000000 19.758533
RightHand -5.946111 -0.000000 10.035460
RightHandThumb1 -24.326973 -0.000000 -32.862282
LeftUpLeg -18.941699 -7.803305 10.051659
LeftLeg 49.593158 -0.000000 -0.000000
LeftFoot -18.733990 4.264086 -25.688655
LeftToeBase -5.057115 -0.000000 0.000000
RightUpLeg -17.655532 6.430856 -10.974890
RightLeg 22.153103 -0.000000 -0.000000
RightFoot -16.708700 5.099236 -2.153286
RightToeBase -2.707063 -0.000000 0.000000
131
root 3.582287 32.232006 -1.239303 8.345949 -22.983750 1.262168
Spine -8.892649 5.045920 -1.873783
Head -1.711565 -10.748870 6.924985
LeftShoulder -12.030154 22.662252 13.379703
LeftArm 26.262349 18.311636 -68.363793
LeftForeArm 2.200377 -0.000000 17.968509
LeftHand -29.070223 -0.000000 -0.949468
LeftHandThumb1 -26.253704 0.000000 33.147579
RightShoulder -17.908661 11.307921 -27.159147
RightArm -3.353934 -24.139766 81.667038
RightForeArm -18.074456 -0.000000 19.937035
RightHand -5.783530 0.000000 10.381798
RightHandThumb1 -24.326973 -0.000000 -32.862282
LeftUpLeg -18.535768 -8.251202 10.606229
LeftLeg 49.618171 -0.000000 -0.000000
LeftFoot -18.423313 3.732215 -25.476304
LeftToeBase -4.836140 -0.000000 0.000000
RightUpLeg -18.030956 6.892236 -11.377407
RightLeg 22.506090 -0.000000 -0.000000
RightFoot -16.688166 5.370728 -1.995958
RightToeBase -2.862223 -0.000000 0.000000
